<svg xmlns="http://www.w3.org/2000/svg" viewBox="0 0 168.67 33.93"><defs><linearGradient id="a" x1="135.795" x2="24.21" y1="16.965" y2="16.965" gradientUnits="userSpaceOnUse"><stop stop-color="#9c3eff"/><stop offset="1" stop-color="#5345ff"/></linearGradient></defs><path fill="#fff" d="M168.6 6.17c.24-1.54-.2-3.11-1.21-4.3A5.342 5.342 0 0 0 163.33 0h-8.64c-1.77 0-3.4.88-4.39 2.31-.97-1.4-2.58-2.31-4.37-2.31h-8.29c-.75 0-1.46.17-2.11.45-.67-.29-1.39-.45-2.14-.45h-6.62c-1.37 0-2.63.53-3.58 1.4-.98-.9-2.26-1.4-3.59-1.4h-6.56c-.77 0-1.5.18-2.17.48-.68-.31-1.44-.48-2.2-.48h-6.62c-.81 0-1.57.2-2.26.52-.71-.33-1.5-.52-2.3-.52h-8.64c-1.77 0-3.4.88-4.39 2.31A5.332 5.332 0 0 0 80.08 0h-8.29c-.68 0-1.34.13-1.94.37A5.31 5.31 0 0 0 67.91 0H52.14c-1.89 0-3.57 1-4.52 2.53C45.01.68 41.78 0 38.53 0h-8.7c-1.71 0-3.24.82-4.23 2.1C23.12.59 20.16 0 17.17 0H8.95C6.32 0 4.09 1.91 3.68 4.5L.07 27.38c-.24 1.54.2 3.11 1.21 4.3a5.342 5.342 0 0 0 4.06 1.87h6.59a5.34 5.34 0 0 0 5.27-4.51l.52-3.31c1.22-.1 2.42-.3 3.59-.64l-.36 2.29c-.24 1.54.2 3.11 1.21 4.3a5.342 5.342 0 0 0 4.06 1.87h6.53c1.23 0 2.37-.43 3.28-1.15.92.72 2.07 1.15 3.28 1.15h6.66c.44 0 .87-.06 1.29-.16.41.1.84.16 1.28.16h16.32c.57 0 1.12-.11 1.65-.28.54.18 1.11.28 1.69.28h5.85c1.01 0 1.96-.29 2.78-.79.81.49 1.76.79 2.76.79h2.18c1.01 0 1.97-.29 2.8-.8.83.52 1.8.8 2.8.8h6.53c.81 0 1.57-.2 2.26-.52.71.34 1.49.52 2.3.52h6.62c2.07 0 3.89-1.2 4.77-2.98 2.99 2.51 6.9 3.36 10.71 3.36 3.32 0 6.55-.66 9.31-2.42.04.06.08.12.13.17a5.342 5.342 0 0 0 4.06 1.87h5.85c1.01 0 1.96-.29 2.78-.79.81.49 1.76.79 2.76.79h2.18c1.01 0 1.97-.29 2.8-.8.83.52 1.8.8 2.8.8h6.53c2.62 0 4.85-1.91 5.27-4.5l3.57-22.88z"/><path fill="url(#a)" d="M8.95 5.33 5.33 28.21h6.59l1.21-7.74h2.91c5.76 0 9.6-2.91 9.6-8.61-.02-4.03-2.99-6.53-8.47-6.53H8.95zm43.19 0-3.62 22.88h16.32l.8-5.05h-9.79l.67-4.23h7.39l.7-4.61h-7.35l.6-3.93h9.25l.8-5.06H52.14zm19.65 0-3.61 22.88h5.85l2.28-14.33 3.26 14.33h2.17l7.87-14.33-2.27 14.33h6.53l3.62-22.88h-8.64l-6.3 12.13-2.47-12.13h-8.29zm30.26 0-3.62 22.88h6.62l3.62-22.88h-6.62zm11 0-2.08 13.03c-1.09 6.81 2.62 10.24 9.57 10.24 6.29 0 9.62-2.88 10.61-9.06l2.24-14.21h-6.62l-2.14 13.63c-.48 3.01-1.41 4.48-4 4.48-2.72 0-3.65-1.57-3.1-4.9l2.08-13.21h-6.56zm24.58 0-3.61 22.88h5.85l2.28-14.33 3.26 14.33h2.18l7.87-14.33-2.27 14.33h6.53l3.61-22.88h-8.64l-6.3 12.13-2.46-12.13h-8.3zm-107.81.01-3.61 22.88h6.53l1.28-8.19h1.54l3.74 8.19h6.66l-4.32-9.44c3.06-.81 5.27-3.11 5.27-6.95.03-4.03-2.81-6.49-8.39-6.49h-8.7zm-15.1 4.86h1.76c1.95 0 2.94.83 2.94 2.4-.01 2.24-1.28 3.42-3.62 3.42h-1.98l.9-5.82zm20.86.06h2.08c1.89 0 2.88.77 2.84 2.37.01 2.18-1.27 3.14-3.47 3.14h-2.31l.86-5.51z"/></svg>